<?xml version="1.0" encoding="UTF-8" standalone="no" ?>
<!DOCTYPE svg PUBLIC "-//W3C//DTD SVG 1.1//EN" "http://www.w3.org/Graphics/SVG/1.1/DTD/svg11.dtd">
<svg xmlns="http://www.w3.org/2000/svg" xmlns:xlink="http://www.w3.org/1999/xlink" version="1.1" width="500" height="500" viewBox="0 0 500 500" xml:space="preserve">
<desc>Created with Fabric.js 3.6.3</desc>
<defs>
</defs>
<rect x="0" y="0" width="100%" height="100%" fill="#000000"></rect>
<g transform="matrix(1,0,0,1,377.97932835820893,243.86499999999998)" style=""  ><path fill="#ffffff" opacity="1" d="M-154.89-10.83L-154.89-16.36L-141.37-16.36L-141.37-10.87L-143.67-10.87L-143.67-1.69Q-143.67 0.86-143.39 2.47Q-143.12 4.09-142.56 5.00Q-142.01 5.91-141.22 6.25Q-140.44 6.59-139.42 6.59L-139.42 6.59Q-138.44 6.59-137.65 6.32Q-136.87 6.04-136.29 5.17Q-135.72 4.30-135.42 2.66Q-135.13 1.03-135.13-1.74L-135.13-1.74L-135.13-10.75L-137.42-10.75L-137.42-16.36L-124.84-16.36L-124.84-10.87L-127.13-10.87L-127.13-0.55Q-127.13 7.02-130.24 10.55Q-133.34 14.07-139.33 14.07L-139.33 14.07Q-145.79 13.86-149.15 10.40Q-152.51 6.93-152.51-0.33L-152.51-0.33L-152.51-10.83L-154.89-10.83Z"/><path fill="#ffffff" opacity="1" d="M-106.99 13.35L-123.14 13.35L-123.14 7.83L-120.68 7.83L-120.68-10.87L-123.14-10.87L-123.14-16.36L-107.29-16.36Q-101.98-16.36-99.43-14.47Q-96.88-12.57-96.88-9.09L-96.88-9.09Q-96.88-7.73-97.09-6.73Q-97.30-5.73-97.77-4.95Q-98.24-4.16-99.04-3.56Q-99.85-2.97-101.04-2.50L-101.04-2.50Q-99.89-2.16-98.87-1.59Q-97.85-1.01-97.09-0.12Q-96.32 0.77-95.88 1.98Q-95.43 3.19-95.43 4.72L-95.43 4.72Q-95.43 9.23-98.13 11.29Q-100.83 13.35-106.99 13.35L-106.99 13.35ZM-111.88 7.83L-108.48 7.83Q-107.12 7.83-106.08 6.87Q-105.04 5.91-105.04 4.17L-105.04 4.17Q-105.04 2.56-105.93 1.49Q-106.82 0.43-108.61 0.43L-108.61 0.43L-111.88 0.43L-111.88 7.83ZM-109.20-10.75L-111.88-10.75L-111.88-4.37L-109.29-4.37Q-107.59-4.37-106.99-5.24Q-106.40-6.11-106.40-7.64L-106.40-7.64Q-106.40-9.13-107.18-9.94Q-107.97-10.75-109.20-10.75L-109.20-10.75Z"/><path fill="#ffffff" opacity="1" d="M-60.67 7.78L-60.67 13.35L-77.71 13.35L-77.71 7.78L-73.67 7.78L-74.56 4.89L-83.28 4.89L-84.17 7.78L-80.85 7.78L-80.85 13.35L-94.37 13.35L-94.37 7.78L-91.48 7.78L-85.74-10.87L-87.48-10.87L-87.48-16.36L-71.16-16.36L-63.64 7.78L-60.67 7.78ZM-78.94-9.39L-81.70-0.21L-76.14-0.21L-78.94-9.39Z"/></g><g transform="matrix(1,0,0,1,349.27432295340213,275.69499999999994)" style=""  ><path fill="#ffffff" opacity="1" d="M-114.76 5.65L-114.76 5.65Q-115.50 5.80-115.64 5.65L-115.64 5.65Q-116.16 4.63-116.38 3.22Q-116.59 1.82-116.77 0.39Q-116.95-1.04-117.39-2.05L-117.39-2.05Q-117.76-1.44-118.20-0.17Q-118.63 1.10-118.88 1.62L-118.88 1.62Q-118.93 1.71-118.89 1.93Q-118.84 2.14-118.88 2.23L-118.88 2.23Q-119.10 2.67-119.52 2.90Q-119.94 3.13-120.37 2.94L-120.37 2.94Q-120.64 2.86-120.86 2.63Q-121.08 2.40-121.08 2.14L-121.08 2.14Q-121.27 0.34-121.87 0.13L-121.87 0.13Q-122.07 0.06-122.09 0.28Q-122.12 0.51-122.07 0.81Q-122.03 1.12-122.12 1.35L-122.12 1.35Q-122.28 1.59-122.23 2.50Q-122.17 3.40-122.21 3.64L-122.21 3.64Q-122.28 4.14-123.06 4.29Q-123.83 4.43-124.14 4.07L-124.14 4.07Q-124.48 3.71-124.52 3.17Q-124.57 2.63-124.44 2.16Q-124.32 1.69-124.13 1.03Q-123.94 0.36-123.88-0.03L-123.88-0.03Q-123.76-0.92-123.61-2.67Q-123.47-4.43-123.34-5.31L-123.34-5.31Q-123.27-5.81-122.61-5.87Q-121.96-5.92-121.78-5.56L-121.78-5.56Q-121.35-4.97-121.08-4.24Q-120.82-3.51-120.59-2.51Q-120.36-1.51-120.19-1.01L-120.19-1.01L-120.10-0.90Q-120.00-0.79-119.94-0.74Q-119.89-0.70-119.85-0.74L-119.85-0.74Q-119.60-1.10-119.35-1.69Q-119.10-2.28-118.92-2.81Q-118.75-3.33-118.48-3.87Q-118.21-4.41-117.93-4.77Q-117.64-5.13-117.16-5.29Q-116.68-5.45-116.07-5.31L-116.07-5.31Q-115.50-3.63-114.99-0.24Q-114.49 3.15-113.97 4.77L-113.97 4.77Q-113.86 5.08-114.12 5.33Q-114.38 5.58-114.76 5.65Z"/><path fill="#ffffff" opacity="1" d="M-111.77 3.30L-111.77 3.30Q-112.67 2.76-113.05 1.75Q-113.43 0.74-113.12-0.30L-113.12-0.30Q-112.96-0.90-112.49-1.55Q-112.02-2.21-111.97-2.34L-111.97-2.34Q-111.61-3.02-110.88-2.95Q-110.15-2.88-109.59-2.27L-109.59-2.27Q-109.00-1.58-108.71-0.50L-108.71-0.50Q-108.22 1.32-109.95 3.13L-109.95 3.13Q-110.24 3.44-110.82 3.48Q-111.41 3.51-111.77 3.30ZM-111.19 1.51L-111.19 1.51Q-110.58 1.66-110.29 1.24Q-110.01 0.83-110.14 0.18Q-110.28-0.47-110.74-0.99L-110.74-0.99Q-110.94-1.20-111.43-0.65L-111.43-0.65Q-112.09 0.09-112.00 0.78L-112.00 0.78Q-111.93 1.35-111.19 1.51Z"/><path fill="#ffffff" opacity="1" d="M-108.06 0.07L-108.06 0.07Q-108.10-0.20-108.25-0.61Q-108.40-1.02-108.50-1.32Q-108.60-1.62-108.57-1.96Q-108.53-2.30-108.24-2.55L-108.24-2.55Q-107.58-3.13-106.94-2.57Q-106.30-2.01-106.44-1.11L-106.44-1.11Q-106.10-1.17-105.76-1.45Q-105.42-1.73-105.20-2.00Q-104.98-2.27-104.61-2.43Q-104.25-2.59-103.81-2.46L-103.81-2.46Q-103.63-2.39-103.58-2.36Q-103.53-2.34-103.37-2.27Q-103.22-2.19-103.18-2.14Q-103.15-2.09-103.08-2.00Q-103.02-1.91-103.06-1.80Q-103.09-1.69-103.18-1.56L-103.18-1.56Q-103.53-1.08-104.43-0.33Q-105.34 0.42-105.72 0.97L-105.72 0.97Q-105.87 1.17-105.89 1.62Q-105.92 2.07-105.99 2.23L-105.99 2.23Q-106.33 2.76-105.81 3.40L-105.81 3.40Q-105.54 3.75-105.60 4.30Q-105.65 4.86-105.99 5.20L-105.99 5.20Q-106.26 5.60-106.76 5.62Q-107.25 5.64-107.52 5.29L-107.52 5.29Q-107.83 5.10-107.79 4.48L-107.79 4.48Q-107.72 2.88-108.06 0.07Z"/><path fill="#ffffff" opacity="1" d="M-102.66 0.58L-102.66 0.58Q-102.70-0.77-101.82-1.60Q-100.93-2.43-99.62-2.25L-99.62-2.25Q-98.54-2.10-97.74-1.20Q-96.94-0.30-96.96 0.81L-96.96 0.81Q-97.12 1.32-98.44 2.10Q-99.76 2.88-99.94 3.06L-99.94 3.06Q-100.03 3.08-100.17 3.21Q-100.30 3.33-100.23 3.44L-100.23 3.44Q-100.02 3.84-99.69 4.00Q-99.37 4.16-98.96 4.09Q-98.56 4.02-98.22 3.89Q-97.89 3.76-97.44 3.53L-97.44 3.53Q-96.97 3.89-97.14 4.49Q-97.32 5.10-97.87 5.19L-97.87 5.19Q-97.91 5.19-98.27 5.25Q-98.63 5.31-98.72 5.32Q-98.81 5.33-99.12 5.36Q-99.42 5.38-99.58 5.36Q-99.75 5.33-99.98 5.29Q-100.21 5.24-100.43 5.15L-100.43 5.15Q-102.59 4.18-102.66 0.58ZM-100.70 1.50L-100.70 1.50Q-99.08 1.42-98.76 0.36L-98.76 0.36Q-98.47-0.27-99.22-0.60Q-99.98-0.93-100.57-0.63L-100.57-0.63Q-100.93-0.43-101.05 0.08Q-101.17 0.60-101.04 1.04Q-100.92 1.48-100.70 1.50Z"/><path fill="#ffffff" opacity="1" d=""/><path fill="#ffffff" opacity="1" d="M-90.58-2.39L-90.58-2.39Q-90.57-2.55-90.46-3.21Q-90.35-3.87-90.31-4.23L-90.31-4.23Q-90.24-4.84-89.58-4.93Q-88.91-5.02-88.41-4.66L-88.41-4.66Q-88.17-4.43-88.32-4.05L-88.32-4.05Q-89.02-2.52-89.02-0.38L-89.02-0.38Q-88.87-0.39-88.51-0.43L-88.51-0.43Q-86.91-0.65-86.57-0.36L-86.57-0.36Q-86.37-0.16-86.48 0.22L-86.48 0.22Q-86.53 0.40-86.66 0.53Q-86.79 0.67-87.01 0.75Q-87.24 0.83-87.41 0.88Q-87.58 0.94-87.90 0.96Q-88.23 0.97-88.38 0.98Q-88.53 0.99-88.89 0.98Q-89.25 0.97-89.32 0.97L-89.32 0.97Q-89.41 1.59-89.17 4.65Q-88.93 7.71-88.96 8.19L-88.96 8.19Q-88.98 8.46-89.15 8.63Q-89.32 8.80-89.59 8.80L-89.59 8.80Q-89.92 8.80-90.08 8.69Q-90.24 8.57-90.35 8.23L-90.35 8.23Q-90.51 7.78-90.68 4.66Q-90.85 1.55-91.14 1.03L-91.14 1.03Q-91.52 1.32-91.97 1.48Q-92.42 1.64-92.86 1.55Q-93.30 1.46-93.46 1.01L-93.46 1.01Q-93.54 0.83-93.38 0.60Q-93.23 0.36-93.01 0.22L-93.01 0.22Q-92.78 0.09-91.98-0.08Q-91.18-0.25-90.93-0.56L-90.93-0.56Q-90.76-0.75-90.71-1.05Q-90.66-1.35-90.63-1.78Q-90.60-2.21-90.58-2.39Z"/><path fill="#ffffff" opacity="1" d="M-85.87 0.33L-85.87 0.33Q-85.81-0.09-85.89-0.77Q-85.98-1.46-85.96-2.04Q-85.94-2.63-85.71-3.06L-85.71-3.06Q-85.60-3.35-85.22-3.46Q-84.84-3.58-84.45-3.42L-84.45-3.42Q-84.21-3.27-84.21-2.68L-84.21-2.68Q-84.23-2.55-84.28-2.02Q-84.34-1.49-84.36-1.30Q-84.37-1.11-84.40-0.67Q-84.43-0.23-84.41 0.04Q-84.39 0.31-84.35 0.68Q-84.30 1.05-84.21 1.37L-84.21 1.37Q-83.65 0.38-82.89-0.19Q-82.12-0.75-81.22-0.36L-81.22-0.36Q-80.90 1.01-80.76 1.61Q-80.63 2.22-80.50 3.31Q-80.38 4.41-80.47 5.28L-80.47 5.28Q-80.49 5.60-81.00 5.74Q-81.51 5.87-81.75 5.64L-81.75 5.64Q-82.16 5.13-82.20 4.36Q-82.25 3.58-82.25 2.73Q-82.25 1.87-82.56 1.30L-82.56 1.30Q-83.67 2.41-84.52 4.21L-84.52 4.21Q-84.63 4.39-84.94 4.52Q-85.26 4.65-85.49 4.59L-85.49 4.59Q-85.53 4.57-85.64 4.55Q-85.76 4.52-85.85 4.50Q-85.94 4.48-86.01 4.43Q-86.08 4.38-86.08 4.30L-86.08 4.30Q-86.08 2.34-85.87 0.33Z"/><path fill="#ffffff" opacity="1" d="M-75.72 6.03L-75.72 6.03Q-75.86 5.94-76.01 5.66Q-76.17 5.38-76.29 5.38L-76.29 5.38Q-76.54 5.35-77.06 5.28Q-77.57 5.20-77.87 5.14Q-78.16 5.08-78.56 4.95Q-78.96 4.83-79.24 4.59Q-79.53 4.36-79.73 4.02L-79.73 4.02Q-80.07 3.49-80.00 2.73Q-79.93 1.96-79.57 1.50L-79.57 1.50Q-79.15 0.94-78.60 0.61Q-78.04 0.27-77.52 0.16Q-77.01 0.06-76.56 0.05Q-76.11 0.04-75.82 0.07L-75.82 0.07L-75.54 0.09Q-75.39-0.09-75.39-0.54Q-75.39-0.99-75.66-1.04L-75.66-1.04Q-75.93-1.17-76.39-1.10Q-76.85-1.02-77.04-0.97Q-77.23-0.92-77.67-0.73Q-78.11-0.54-78.34-0.47L-78.34-0.47Q-78.81-0.30-79.03-0.98Q-79.24-1.65-79.06-1.83L-79.06-1.83Q-78.38-2.30-77.44-2.54Q-76.51-2.77-75.58-2.54Q-74.65-2.32-74.28-1.53L-74.28-1.53Q-74.02-1.01-74.00-0.37Q-73.97 0.27-74.09 0.78Q-74.20 1.28-74.36 1.99Q-74.51 2.70-74.55 3.21L-74.55 3.21Q-74.69 5.47-75.07 5.96L-75.07 5.96Q-75.34 6.27-75.72 6.03ZM-76.04 3.85L-76.04 3.85Q-75.99 3.60-75.88 3.22Q-75.77 2.85-75.71 2.61Q-75.64 2.38-75.65 2.05Q-75.66 1.71-75.81 1.37L-75.81 1.37Q-76.09 1.48-76.68 1.58Q-77.26 1.68-77.65 1.76Q-78.04 1.84-78.36 2.15Q-78.69 2.47-78.70 3.01L-78.70 3.01Q-78.70 3.37-78.05 3.66Q-77.39 3.94-76.80 3.96Q-76.20 3.98-76.04 3.85Z"/><path fill="#ffffff" opacity="1" d="M-73.25 1.75L-73.25 1.75Q-73.25 1.46-73.30 0.79Q-73.36 0.11-73.34-0.37Q-73.32-0.84-73.18-1.22L-73.18-1.22Q-73.02-1.64-72.45-1.61Q-71.88-1.58-71.76-1.13L-71.76-1.13Q-71.68-0.88-71.80-0.41Q-71.92 0.06-71.92 0.24L-71.92 0.24Q-71.88 0.27-71.83 0.38L-71.83 0.38Q-71.77 0.45-71.76 0.45L-71.76 0.45Q-71.72 0.40-71.58 0.16Q-71.45-0.07-71.40-0.15Q-71.36-0.23-71.22-0.43Q-71.09-0.63-71.02-0.70Q-70.95-0.77-70.81-0.92Q-70.68-1.08-70.57-1.13Q-70.46-1.19-70.31-1.27Q-70.15-1.35-70.01-1.36Q-69.87-1.37-69.69-1.36Q-69.52-1.35-69.33-1.29L-69.33-1.29Q-69.04-0.84-68.85-0.35Q-68.66 0.15-68.57 0.83Q-68.48 1.51-68.44 1.83Q-68.41 2.14-68.37 3.05Q-68.34 3.96-68.34 4.11L-68.34 4.11Q-68.16 4.90-68.57 5.02L-68.57 5.02Q-69.72 5.33-69.79 4.86L-69.79 4.86Q-69.90 4.18-69.96 2.70Q-70.01 1.23-70.17 0.45L-70.17 0.45Q-70.68 1.01-71.16 2.30Q-71.65 3.58-71.92 4.03L-71.92 4.03Q-72.13 4.39-72.57 4.41Q-73.02 4.43-73.18 4.03L-73.18 4.03Q-73.29 3.73-73.30 3.36Q-73.32 2.99-73.29 2.48Q-73.25 1.96-73.25 1.75Z"/><path fill="#ffffff" opacity="1" d=""/><path fill="#ffffff" opacity="1" d="M-59.53 6.03L-59.53 6.03Q-59.68 5.94-59.83 5.66Q-59.98 5.38-60.11 5.38L-60.11 5.38Q-60.36 5.35-60.87 5.28Q-61.39 5.20-61.68 5.14Q-61.98 5.08-62.38 4.95Q-62.77 4.83-63.06 4.59Q-63.35 4.36-63.55 4.02L-63.55 4.02Q-63.89 3.49-63.82 2.73Q-63.75 1.96-63.39 1.50L-63.39 1.50Q-62.97 0.94-62.41 0.61Q-61.86 0.27-61.34 0.16Q-60.83 0.06-60.38 0.05Q-59.93 0.04-59.64 0.07L-59.64 0.07L-59.35 0.09Q-59.21-0.09-59.21-0.54Q-59.21-0.99-59.48-1.04L-59.48-1.04Q-59.75-1.17-60.21-1.10Q-60.67-1.02-60.86-0.97Q-61.05-0.92-61.49-0.73Q-61.93-0.54-62.16-0.47L-62.16-0.47Q-62.63-0.30-62.85-0.98Q-63.06-1.65-62.88-1.83L-62.88-1.83Q-62.20-2.30-61.26-2.54Q-60.33-2.77-59.40-2.54Q-58.47-2.32-58.09-1.53L-58.09-1.53Q-57.84-1.01-57.81-0.37Q-57.79 0.27-57.90 0.78Q-58.02 1.28-58.17 1.99Q-58.33 2.70-58.36 3.21L-58.36 3.21Q-58.51 5.47-58.89 5.96L-58.89 5.96Q-59.16 6.27-59.53 6.03ZM-59.86 3.85L-59.86 3.85Q-59.80 3.60-59.70 3.22Q-59.59 2.85-59.52 2.61Q-59.46 2.38-59.47 2.05Q-59.48 1.71-59.62 1.37L-59.62 1.37Q-59.91 1.48-60.50 1.58Q-61.08 1.68-61.47 1.76Q-61.86 1.84-62.18 2.15Q-62.50 2.47-62.52 3.01L-62.52 3.01Q-62.52 3.37-61.86 3.66Q-61.21 3.94-60.61 3.96Q-60.02 3.98-59.86 3.85Z"/><path fill="#ffffff" opacity="1" d=""/><path fill="#ffffff" opacity="1" d="M-53.18-2.00L-53.18-2.00Q-52.57-2.52-51.87-2.82Q-51.16-3.13-50.37-3.19Q-49.58-3.26-48.88-2.88L-48.88-2.88Q-48.45-2.66-48.52-2.34L-48.52-2.34Q-48.86-1.64-49.03-0.87Q-49.20-0.11-49.21 0.77Q-49.22 1.64-49.18 2.26Q-49.15 2.88-49.03 3.94Q-48.91 4.99-48.88 5.47L-48.88 5.47Q-48.79 6.39-48.93 7.03Q-49.08 7.67-49.69 8.01L-49.69 8.01Q-50.75 8.62-52.05 8.15Q-53.34 7.67-53.74 6.50L-53.74 6.50Q-53.90 6.01-53.40 5.75Q-52.91 5.49-52.64 5.82L-52.64 5.82Q-52.55 5.91-52.14 6.40Q-51.74 6.90-51.41 7.10Q-51.07 7.31-50.64 7.26L-50.64 7.26Q-50.52 7.22-50.30 6.77L-50.30 6.77Q-50.14 6.23-50.19 5.21Q-50.25 4.20-50.33 3.67Q-50.41 3.13-50.59 2.11L-50.59 2.11Q-50.59 2.07-50.57 1.96L-50.57 1.96Q-50.48 1.57-50.61 1.59L-50.61 1.59L-50.71 1.64Q-51.88 2.34-52.77 1.98L-52.77 1.98Q-53.31 1.77-53.79 0.88L-53.79 0.88Q-54.13 0.13-53.98-0.66Q-53.83-1.46-53.18-2.00ZM-52.03-1.51L-52.03-1.51Q-52.68-0.95-52.57-0.21L-52.57-0.21Q-52.39 1.03-51.88 1.03L-51.88 1.03Q-51.58 1.05-51.37 0.85Q-51.16 0.65-50.93 0.14Q-50.70-0.38-50.64-0.48L-50.64-0.48Q-50.48-0.75-50.45-1.18Q-50.43-1.60-50.59-1.85L-50.59-1.85Q-50.70-2.07-50.97-2.02Q-51.25-1.98-51.52-1.84Q-51.79-1.71-52.03-1.51Z"/><path fill="#ffffff" opacity="1" d="M-43.95 6.03L-43.95 6.03Q-44.09 5.94-44.24 5.66Q-44.40 5.38-44.52 5.38L-44.52 5.38Q-44.77 5.35-45.29 5.28Q-45.80 5.20-46.10 5.14Q-46.39 5.08-46.79 4.95Q-47.19 4.83-47.47 4.59Q-47.76 4.36-47.96 4.02L-47.96 4.02Q-48.30 3.49-48.23 2.73Q-48.16 1.96-47.80 1.50L-47.80 1.50Q-47.38 0.94-46.83 0.61Q-46.27 0.27-45.75 0.16Q-45.24 0.06-44.79 0.05Q-44.34 0.04-44.05 0.07L-44.05 0.07L-43.77 0.09Q-43.62-0.09-43.62-0.54Q-43.62-0.99-43.89-1.04L-43.89-1.04Q-44.16-1.17-44.62-1.10Q-45.08-1.02-45.27-0.97Q-45.46-0.92-45.90-0.73Q-46.34-0.54-46.57-0.47L-46.57-0.47Q-47.04-0.30-47.26-0.98Q-47.47-1.65-47.29-1.83L-47.29-1.83Q-46.61-2.30-45.67-2.54Q-44.74-2.77-43.81-2.54Q-42.88-2.32-42.51-1.53L-42.51-1.53Q-42.25-1.01-42.23-0.37Q-42.20 0.27-42.32 0.78Q-42.43 1.28-42.59 1.99Q-42.74 2.70-42.78 3.21L-42.78 3.21Q-42.92 5.47-43.30 5.96L-43.30 5.96Q-43.57 6.27-43.95 6.03ZM-44.27 3.85L-44.27 3.85Q-44.22 3.60-44.11 3.22Q-44.00 2.85-43.94 2.61Q-43.87 2.38-43.88 2.05Q-43.89 1.71-44.04 1.37L-44.04 1.37Q-44.32 1.48-44.91 1.58Q-45.49 1.68-45.88 1.76Q-46.27 1.84-46.59 2.15Q-46.92 2.47-46.93 3.01L-46.93 3.01Q-46.93 3.37-46.28 3.66Q-45.62 3.94-45.03 3.96Q-44.43 3.98-44.27 3.85Z"/><path fill="#ffffff" opacity="1" d="M-41.82 0.33L-41.82 0.33Q-41.95-0.72-41.56-1.41Q-41.17-2.10-40.20-1.82L-40.20-1.82Q-39.84-1.71-39.74-1.41Q-39.64-1.11-39.73-0.76Q-39.82-0.41-39.83-0.03Q-39.84 0.34-39.68 0.60L-39.68 0.60Q-39.41 0.34-39.12-0.13Q-38.83-0.61-38.64-0.99Q-38.46-1.37-38.14-1.74Q-37.83-2.12-37.48-2.18Q-37.14-2.25-36.55-2.09L-36.55-2.09Q-36.28-1.82-36.19-1.74L-36.19-1.74Q-36.12-1.46-36.04-0.74Q-35.97-0.03-35.83 0.33L-35.83 0.33Q-35.68 0.18-35.44-0.11Q-35.20-0.41-35.03-0.61Q-34.86-0.81-34.60-1.06Q-34.35-1.31-34.12-1.45Q-33.88-1.58-33.61-1.70Q-33.34-1.82-33.05-1.80Q-32.75-1.78-32.43-1.65L-32.43-1.65Q-32.23-1.53-32.16-1.31Q-32.08-1.10-32.08-0.75Q-32.08-0.41-32.07-0.30L-32.07-0.30Q-31.54 3.53-32.52 6.05L-32.52 6.05Q-32.64 6.50-33.20 6.59Q-33.76 6.68-34.23 6.39L-34.23 6.39Q-34.28 6.39-34.32 6.29Q-34.35 6.19-34.35 6.05Q-34.35 5.91-34.32 5.78L-34.32 5.78Q-33.49 3.53-33.96 0.42L-33.96 0.42Q-33.96 0.16-34.23 0.40L-34.23 0.40Q-34.35 0.49-34.41 0.60L-34.41 0.60Q-35.31 2.09-36.10 4.25L-36.10 4.25Q-36.33 4.72-36.97 4.91Q-37.61 5.10-37.97 4.61L-37.97 4.61Q-38.24 4.05-38.04 2.79Q-37.84 1.53-38.06 0.87L-38.06 0.87Q-38.37 1.39-38.93 2.68Q-39.50 3.96-39.93 4.61L-39.93 4.61Q-40.22 5.01-40.80 5.01Q-41.39 5.01-41.55 4.61L-41.55 4.61Q-41.84 3.89-41.80 2.53Q-41.77 1.17-41.82 0.33Z"/><path fill="#ffffff" opacity="1" d="M-30.95 0.58L-30.95 0.58Q-30.99-0.77-30.10-1.60Q-29.22-2.43-27.91-2.25L-27.91-2.25Q-26.83-2.10-26.03-1.20Q-25.23-0.30-25.24 0.81L-25.24 0.81Q-25.41 1.32-26.73 2.10Q-28.05 2.88-28.23 3.06L-28.23 3.06Q-28.32 3.08-28.46 3.21Q-28.59 3.33-28.52 3.44L-28.52 3.44Q-28.30 3.84-27.98 4.00Q-27.66 4.16-27.25 4.09Q-26.85 4.02-26.51 3.89Q-26.18 3.76-25.73 3.53L-25.73 3.53Q-25.26 3.89-25.43 4.49Q-25.60 5.10-26.16 5.19L-26.16 5.19Q-26.20 5.19-26.56 5.25Q-26.92 5.31-27.01 5.32Q-27.10 5.33-27.40 5.36Q-27.71 5.38-27.87 5.36Q-28.03 5.33-28.27 5.29Q-28.50 5.24-28.72 5.15L-28.72 5.15Q-30.88 4.18-30.95 0.58ZM-28.99 1.50L-28.99 1.50Q-27.37 1.42-27.04 0.36L-27.04 0.36Q-26.76-0.27-27.51-0.60Q-28.27-0.93-28.86-0.63L-28.86-0.63Q-29.22-0.43-29.34 0.08Q-29.46 0.60-29.33 1.04Q-29.20 1.48-28.99 1.50Z"/><path fill="#ffffff" opacity="1" d=""/></g><g transform="matrix(1.3266998341625207 0 0 1.3266998341625207 152.6343283582089 250.99999999999997)"  >
<g style=""   >
		<g transform="matrix(1 0 0 1 16.692243481160308 0.46999999999999886)"  >
<linearGradient id="SVGID_1815" gradientUnits="userSpaceOnUse" gradientTransform="matrix(1 0 0 1 33.413621910417504 0.9399999999999977)"  x1="0" y1="0" x2="80.1" y2="90.45">
<stop offset="0%" style="stop-color:rgb(239,65,54);stop-opacity: 1"/>
<stop offset="100%" style="stop-color:rgb(251,176,64);stop-opacity: 1"/>
</linearGradient>
<path style="stroke: none; stroke-width: 1; stroke-dasharray: none; stroke-linecap: butt; stroke-dashoffset: 0; stroke-linejoin: miter; stroke-miterlimit: 4; fill: url(#SVGID_1815); fill-rule: nonzero; opacity: 1;"  transform=" translate(-56.7422434811603, -45.695)" d="M 76.81 90.45 a 12.24 12.24 0 0 1 -0.38 -1.27 a 28.74 28.74 0 0 1 -0.32 -7.41 a 26.68 26.68 0 0 0 0 -5.21 c -0.31 -2.31 -0.59 -4.64 -0.84 -7 c -0.17 -1.63 -0.24 -3.26 -0.4 -4.89 c -0.13 -1.35 -0.34 -2.7 -0.49 -4.06 c 0 -0.44 0 -0.9 0 -1.34 c 0 -0.73 -0.15 -1.46 -0.16 -2.18 a 23.54 23.54 0 0 1 0.08 -3 a 45.41 45.41 0 0 0 0 -6.7 c 0 -1.24 0.06 -2.48 0.09 -3.72 c 0 -0.69 0 -1.39 0 -2.08 c 0 -0.41 0 -0.82 0 -1.27 l -4 -0.18 a 8.66 8.66 0 0 0 -1 1.24 a 2.33 2.33 0 0 0 -0.23 1.2 c 0.11 1.78 0.3 3.55 0.4 5.34 a 49.64 49.64 0 0 0 1.44 9.54 a 65.26 65.26 0 0 1 1 7.35 c 0.38 2.89 0.17 5.79 0.34 8.68 a 2 2 0 0 1 0 0.42 c 0 0.44 -0.21 0.9 -0.66 1 a 2.13 2.13 0 0 1 -1 -0.34 a 1.11 1.11 0 0 1 -0.42 -0.46 a 11.82 11.82 0 0 1 -1.68 -3.91 c 0 -0.11 0 -0.24 0 -0.31 c -0.69 -1 -0.6 -2.18 -0.79 -3.29 c -0.1 -0.59 -0.14 -1.18 -0.21 -1.77 c 0 -0.34 -0.07 -0.68 -0.12 -1.22 l -1.44 0.91 c 0 1.55 0 3.14 0 4.76 l 0.52 0 l -0.57 2.88 l -0.7 -0.27 a 15.65 15.65 0 0 0 -1 3.48 a 12.63 12.63 0 0 1 -1.13 2.8 c -0.5 0.89 -0.88 0.86 -1.64 0.13 l -0.08 -0.07 a 4.46 4.46 0 0 1 -1.93 -1.72 c -0.41 -0.78 -0.8 -1.56 -1.21 -2.36 c -0.25 0 -0.62 0 -0.79 -0.2 A 1.54 1.54 0 0 1 57 73 c -0.13 -1.18 -0.19 -2.36 -0.27 -3.55 a 2.13 2.13 0 0 0 -0.23 -1 c -0.46 1 -1 1.89 -1.35 2.87 c -0.75 1.93 -1.4 3.89 -2.16 5.81 A 5.34 5.34 0 0 1 51.9 78.7 a 0.51 0.51 0 0 1 -0.92 -0.17 a 6.3 6.3 0 0 0 -1.75 -2.7 A 13.49 13.49 0 0 1 47 71.65 s -0.09 0 -0.1 0 l -0.43 0.49 l -1.29 -2.54 c -0.5 0.84 -0.9 1.66 -1.43 2.38 c -1 1.29 -2 2.52 -3 3.76 a 1.3 1.3 0 0 1 -0.48 0.4 c -0.27 0.1 -0.63 0.24 -0.84 0.13 s -0.17 -0.53 0 -0.81 s 0.17 -0.31 0.27 -0.45 q 2 -2.94 4.06 -5.87 c 0.28 -0.39 0.61 -0.75 0.95 -1.16 c -0.23 -0.89 -0.45 -1.8 -0.69 -2.71 a 1 1 0 0 0 -0.69 -0.84 c -1.35 -0.45 -2.69 -1 -4.15 -1.46 c 0 0.73 -0.09 1.41 -0.09 2.08 c 0 1.4 0.07 2.8 0.06 4.2 a 14.21 14.21 0 0 1 -1.47 5.64 c -0.18 0.42 -0.38 0.93 -0.93 0.85 s -0.7 -0.64 -0.75 -1.13 a 39.56 39.56 0 0 1 0.1 -7.3 c 0.23 -2.72 0.4 -5.45 0.49 -8.18 c 0.06 -1.86 0 -3.72 -0.14 -5.57 c -0.05 -0.83 -0.37 -1.65 -0.43 -2.48 a 67.57 67.57 0 0 1 -0.5 -7.11 a 2.3 2.3 0 0 0 -0.73 -1.87 A 3.85 3.85 0 0 1 34.07 37 A 9.68 9.68 0 0 1 38.41 33 c 2.15 -1.15 4.53 -1.35 6.85 -1.8 a 7.17 7.17 0 0 1 1.45 -0.17 a 59.24 59.24 0 0 0 6.78 -0.71 a 12 12 0 0 1 5.17 0.49 c 2 0.68 4 1.31 6 1.88 a 10.7 10.7 0 0 1 5 3 a 1.29 1.29 0 0 0 0.77 0.45 c 1.31 0 2.63 -0.1 4.08 -0.17 a 7.79 7.79 0 0 0 0.06 -1.76 a 20.65 20.65 0 0 1 0 -5.21 c 0.08 -0.9 0 -1.82 0.13 -2.72 c 0.12 -1.35 0.32 -2.7 0.43 -4 s 0.06 -2.5 0.18 -3.74 c 0.14 -1.46 0.37 -2.91 0.56 -4.36 c 0.35 -2.74 0.68 -5.49 1.06 -8.22 c 0.17 -1.21 0.45 -2.41 0.69 -3.61 a 3.64 3.64 0 0 1 0.5 -1.41 a 1.66 1.66 0 0 1 0.23 0.56 c 0 2.34 -0.06 4.68 -0.1 7 c 0 1.71 0 3.42 -0.1 5.14 c 0 0.93 -0.13 1.87 -0.16 2.8 s 0 2.14 0 3.21 c 0 0.76 -0.05 1.52 0 2.27 s 0.08 1.32 0.11 2 c 0.09 2.22 0.18 4.45 0.29 6.67 a 5.44 5.44 0 0 0 0.15 0.7 c 0.08 0.45 0.16 0.89 0.21 1.34 c 0 0.24 -0.08 0.55 0 0.72 c 0.82 1.21 0.45 2.63 0.78 3.92 a 6.89 6.89 0 0 1 0.21 1.1 c 0 0.8 0.06 1.6 0.09 2.39 c 0 0.52 0 1 0 1.56 c 0 0.28 0.16 0.61 0.06 0.83 c -0.41 0.91 0 1.75 0.1 2.62 C 80 47 80 48.27 80 49.52 s 0.08 2.64 0.07 3.95 c 0 1 -0.06 2.06 -0.16 3.08 A 11.46 11.46 0 0 0 79.77 59 a 8.16 8.16 0 0 1 -0.15 1.76 c -0.13 1.38 -0.29 2.76 -0.39 4.15 c -0.15 2.17 -0.16 4.36 -0.41 6.52 c -0.27 2.36 0.05 4.74 -0.42 7.09 s -0.74 4.54 -1 6.82 c -0.14 1.21 -0.08 2.45 -0.14 3.67 A 13.75 13.75 0 0 1 77 90.44 Z M 56.2 42.27 v -0.16 c 0.63 0 1.26 0.1 1.89 0.08 c 2 -0.06 4.06 -0.1 6.08 -0.26 A 7.6 7.6 0 0 0 68.93 40 c 0.51 -0.47 0.9 -1.18 0.65 -1.64 a 4.68 4.68 0 0 0 -1.8 -2.22 a 22.25 22.25 0 0 0 -6.51 -2.29 A 26.51 26.51 0 0 1 58.12 33 a 11.72 11.72 0 0 0 -4.54 -0.65 c -1.85 0.13 -3.69 0.36 -5.53 0.58 c -1.25 0.15 -2.5 0.32 -3.74 0.54 A 16.68 16.68 0 0 0 40 35.08 a 8 8 0 0 0 -2.68 2 c -1 1.2 -1 1.53 0.44 2.22 A 19 19 0 0 0 43 41 c 2 0.31 4.09 0.51 6.15 0.7 C 51.52 41.93 53.86 42.08 56.2 42.27 Z M 43.83 55.43 l -0.13 -5.74 c -2.45 -1 -5 -1.74 -6.9 -3.67 a 60.4 60.4 0 0 0 7 2.84 l 0 -2.09 c -3 -0.58 -5.36 -2.27 -8 -3.77 c 0.21 1.21 0.36 2.23 0.57 3.25 q 0.55 2.61 1.16 5.22 c 0.17 0.71 0.45 1.41 0.56 2.13 c 0.38 2.53 0.72 5.06 1.05 7.59 a 0.76 0.76 0 0 0 0.58 0.76 l 3.93 1 c 0 -2.12 0 -4.16 0 -6.21 L 39.14 55 l 0.08 -0.24 Z m 12.49 8.31 L 55.9 58 a 29.62 29.62 0 0 1 -9.34 -0.53 l -0.12 6.22 C 49.82 63.72 53 64.35 56.32 63.74 Z M 51.55 77.09 c 0.53 -1.06 1 -1.92 1.37 -2.81 a 37.55 37.55 0 0 1 3.41 -6.72 a 1.17 1.17 0 0 0 0.19 -1.09 L 46.27 65.28 a 5.51 5.51 0 0 0 0.32 1.93 c 1 1.53 2.1 3 3.12 4.45 a 9.27 9.27 0 0 1 1.75 4.43 C 51.49 76.35 51.51 76.61 51.55 77.09 Z m -4.91 -21.2 a 36.4 36.4 0 0 0 9.21 0 c -0.4 -1.61 -0.21 -3.2 -0.66 -4.64 a 48.61 48.61 0 0 1 -4.94 0.09 c -1.6 -0.12 -3.18 -0.52 -4.82 -0.81 C 45.84 52.34 46.24 54.1 46.64 55.89 Z M 62.15 77.78 a 3.86 3.86 0 0 0 0.49 -0.75 c 0.76 -2 1.51 -4 2.23 -6 a 1.25 1.25 0 0 0 -0.07 -0.71 c -0.51 -1.56 -1 -3.11 -1.56 -4.66 c 0 -0.06 -0.1 -0.09 -0.25 -0.22 l -4.89 0.77 a 4.38 4.38 0 0 0 0.59 2.89 c 1 1.6 1.92 3.25 2.86 4.89 A 4.83 4.83 0 0 1 62.15 77.78 Z m 0.56 -15.44 c -0.08 -1.45 -0.16 -2.82 -0.24 -4.25 a 23.75 23.75 0 0 0 -5.4 0 c 0.27 1.87 0.52 3.62 0.79 5.46 C 59.58 63.6 61 62.87 62.71 62.34 Z m -5.86 -6.51 a 8 8 0 0 0 5.42 -1.21 c 0.15 -0.11 0.34 -0.3 0.35 -0.46 c 0.09 -1.16 0.13 -2.33 0.19 -3.63 c -2 1.21 -4.2 0.85 -6.47 0.73 C 56.52 52.84 56.68 54.32 56.85 55.83 Z M 55 47.12 c -3.39 0.18 -6.63 0.57 -10 -0.12 l 0.3 2.55 c 1 0.2 1.94 0.43 2.87 0.55 a 8.15 8.15 0 0 0 1.78 0 c 1 -0.09 2.09 -0.24 3.13 -0.35 l 2 -0.23 Z m 13 -4.49 l -3.63 2.56 l 0.39 2 c 0.66 0 1.26 -0.61 1.87 0 c -0.1 0.22 -0.14 0.52 -0.31 0.64 c -1.19 0.8 -1.26 1.94 -1 3.2 c 0.14 0.81 0.19 1.63 0.29 2.53 l 1.36 -0.2 c 0.41 -3.42 0.81 -6.8 1.2 -10.19 A 2.11 2.11 0 0 0 67.92 42.63 Z M 56.09 49.47 c 2.5 -0.34 4.7 -1.24 7.07 -1.77 l -0.19 -2 c -2.38 0.48 -4.71 0.78 -7 1.36 Z m 11 11.67 A 16.21 16.21 0 0 0 67 56.83 c -1.49 0.48 -1.49 0.48 -1.36 1.9 c 0 0.31 0 0.63 0 0.94 c 0 0.54 0.09 1.07 0.15 1.65 Z m 7.21 -22.9 L 74.4 37 l -2.67 1.36 Z" stroke-linecap="round" />
</g>
		<g transform="matrix(1 0 0 1 -13.879687571640481 -29.773497509349575)"  >
<linearGradient id="SVGID_1816" gradientUnits="userSpaceOnUse" gradientTransform="matrix(1 0 0 1 -1.421085e-14 -0.004291408363513938)"  x1="0" y1="0" x2="80.1" y2="90.45">
<stop offset="0%" style="stop-color:rgb(239,65,54);stop-opacity: 1"/>
<stop offset="100%" style="stop-color:rgb(251,176,64);stop-opacity: 1"/>
</linearGradient>
<path style="stroke: none; stroke-width: 1; stroke-dasharray: none; stroke-linecap: butt; stroke-dashoffset: 0; stroke-linejoin: miter; stroke-miterlimit: 4; fill: url(#SVGID_1816); fill-rule: nonzero; opacity: 1;"  transform=" translate(-26.170312428359516, -15.451502490650428)" d="M 17.2 9 l -3.48 -0.63 c -0.56 0.67 -0.33 1.6 -0.82 2.33 c -0.87 -0.64 -0.37 -1.63 -0.62 -2.46 A 68.13 68.13 0 0 0 0 8.94 a 2.3 2.3 0 0 1 1.65 -0.88 Q 6.38 7.49 11.12 7 a 11.1 11.1 0 0 1 1.29 0 l 0.83 -2.84 c -0.34 -0.07 -0.67 -0.18 -1 -0.22 L 6.28 3.1 c -0.12 0 -0.28 0 -0.35 0 a 0.78 0.78 0 0 1 -0.32 -0.43 c 0 -0.27 0.13 -0.44 0.43 -0.42 l 6.86 0.6 l 0.76 0.07 c 0.76 -0.84 1.43 -1.61 2.14 -2.35 A 1.61 1.61 0 0 1 17.15 0 a 0.69 0.69 0 0 1 0.45 0.33 c 0 0.08 -0.09 0.35 -0.21 0.42 c -1 0.54 -1.33 1.53 -2 2.51 l 3.76 1 l 1.21 -1.46 A 6.81 6.81 0 0 1 23.09 0.71 a 2.93 2.93 0 0 1 0.6 -0.15 c 0.27 -0.05 0.59 0 0.63 0.3 a 0.69 0.69 0 0 1 -0.33 0.53 a 7.65 7.65 0 0 0 -2.66 3 a 3.29 3.29 0 0 0 -0.18 0.44 l 3.16 1.33 c 0.16 -0.16 0.32 -0.32 0.47 -0.5 A 15.49 15.49 0 0 1 28 2.7 a 8.33 8.33 0 0 1 1.26 -0.65 a 0.76 0.76 0 0 1 1 0.26 a 19.19 19.19 0 0 0 -3.71 5.63 l 0.83 1.36 l 1.56 -1.37 a 1.23 1.23 0 0 1 0.35 -0.26 a 3.76 3.76 0 0 0 1.58 -1.32 A 9.16 9.16 0 0 1 32.68 5 a 29.27 29.27 0 0 1 2.67 -1.53 a 12.2 12.2 0 0 1 4 -1 a 3.92 3.92 0 0 1 1 0.18 l 1.56 0.18 a 0.93 0.93 0 0 1 0.34 0.06 a 15.65 15.65 0 0 1 3.61 1.81 a 2.58 2.58 0 0 0 0.6 0.36 a 8.75 8.75 0 0 1 3.25 3.14 a 21.75 21.75 0 0 1 1.64 2.67 a 8.55 8.55 0 0 1 0.74 3.61 a 5.37 5.37 0 0 0 0.09 1.93 a 2 2 0 0 1 -0.35 2.12 a 13.32 13.32 0 0 0 -1.08 2.4 A 10 10 0 0 1 49.53 23 a 13.15 13.15 0 0 1 -3 3 a 14.66 14.66 0 0 1 -5.5 2.7 a 11.46 11.46 0 0 0 -2.15 1 a 12.07 12.07 0 0 1 -3.06 1.11 a 6.78 6.78 0 0 1 -3.54 -0.34 c -0.32 -0.12 -0.65 -0.21 -1 -0.32 c 0 0 -0.13 0 -0.16 0 c -0.72 -0.93 -2 -1.07 -2.74 -1.94 c -0.11 -0.14 -0.2 -0.29 -0.3 -0.43 c -0.26 -0.36 -0.48 -0.73 -0.77 -1.06 a 5.05 5.05 0 0 1 -1.47 -2.14 a 0.75 0.75 0 0 0 -0.15 -0.31 a 8.79 8.79 0 0 1 -1.54 -3.75 a 9.92 9.92 0 0 1 0.44 -5.32 c 0.13 -0.37 0.1 -0.79 0.22 -1.17 a 11.26 11.26 0 0 1 2.39 -4.32 l -1.33 -0.73 c -0.3 0.51 -0.57 1 -0.84 1.46 c -0.74 1.26 -1.52 2.5 -2.18 3.8 a 11.17 11.17 0 0 0 -0.61 2.11 c -0.14 0.49 -0.14 0.49 -0.69 0.89 a 1.83 1.83 0 0 1 -1.12 -1.73 a 8.62 8.62 0 0 1 0.6 -4 c 0.14 -0.38 0.31 -0.75 0.49 -1.21 l -2.63 -0.73 c -0.88 1.06 -0.82 2.48 -1.68 3.51 C 16.33 11.64 17.11 10.36 17.2 9 Z m 29.23 14.9 c -3 -2 -5.28 -4.36 -6.21 -7.82 a 1.89 1.89 0 0 0 -1.67 0.18 a 70.77 70.77 0 0 1 0.34 10.4 C 40.46 26.93 45.66 25.21 46.43 23.91 Z m 4.37 -8.53 a 6.63 6.63 0 0 1 -0.22 -0.81 a 5.39 5.39 0 0 0 -1.65 -3.12 c -0.68 -0.67 -1.53 -1.17 -2.2 -1.85 a 9.8 9.8 0 0 0 -2.81 -1.75 c -0.41 -0.21 -0.66 -0.11 -0.82 0.32 c -0.29 0.83 -0.59 1.66 -0.84 2.51 a 6.81 6.81 0 0 0 0.06 3.47 C 45.24 13.86 48.1 13.39 50.8 15.38 Z M 30.06 10.51 a 21.92 21.92 0 0 1 2.31 2.59 a 19.73 19.73 0 0 1 1.39 3.09 l 2.91 -1 a 16.79 16.79 0 0 0 -1.84 -8.15 C 33 8 31.12 8.7 30.06 10.51 Z m 10 4.18 c -0.62 -2.9 0.49 -5.19 2.28 -7.31 a 8.23 8.23 0 0 0 -6.55 -0.64 c 0.6 1.42 1.25 2.71 1.69 4.06 s 0.66 2.78 1 4.26 Z m -4.16 11.1 a 26.83 26.83 0 0 0 0.75 -9.46 l -2.81 1.05 a 16 16 0 0 1 -1.35 5.18 c -0.06 0.14 -0.15 0.26 -0.2 0.4 c -0.21 0.59 0 0.93 0.61 0.92 a 1.24 1.24 0 0 1 0.84 0.38 c 0.61 0.49 1.23 0.95 1.85 1.42 A 1.15 1.15 0 0 0 35.89 25.79 Z M 43 16.2 c 0.23 1.61 3.69 5.23 5.55 5.8 a 19.78 19.78 0 0 0 2.38 -4.24 c -0.64 -0.1 -1.17 -0.14 -1.67 -0.26 c -1.11 -0.28 -2.22 -0.6 -3.32 -0.89 A 8.65 8.65 0 0 0 43 16.2 Z M 28.82 18.68 c 0.65 -0.33 1.29 -0.62 1.89 -1 a 0.78 0.78 0 0 0 0.33 -0.55 A 7.38 7.38 0 0 0 29.42 12 c -0.2 0.31 -0.57 0.61 -0.55 0.89 a 5.08 5.08 0 0 1 -0.64 2 a 1.09 1.09 0 0 0 0 0.26 A 6.53 6.53 0 0 0 28.82 18.68 Z M 14.87 4.43 l -0.95 2.5 l 3.74 0.7 l 0.92 -2.18 Z M 22 9.3 l 1.48 -2.13 a 28.49 28.49 0 0 0 -3.11 -1 l -1 2 Z m 8.85 9.35 a 5.42 5.42 0 0 0 -1.92 0.92 l 1.14 1.58 A 6.56 6.56 0 0 0 30.88 18.65 Z" stroke-linecap="round" />
</g>
		<g transform="matrix(1 0 0 1 12.287394188072724 -8.406848652336283)"  >
<linearGradient id="SVGID_1817" gradientUnits="userSpaceOnUse" gradientTransform="matrix(1 0 0 1 39 34.04496701845278)"  x1="0" y1="0" x2="80.1" y2="90.45">
<stop offset="0%" style="stop-color:rgb(239,65,54);stop-opacity: 1"/>
<stop offset="100%" style="stop-color:rgb(251,176,64);stop-opacity: 1"/>
</linearGradient>
<path style="stroke: none; stroke-width: 1; stroke-dasharray: none; stroke-linecap: butt; stroke-dashoffset: 0; stroke-linejoin: miter; stroke-miterlimit: 4; fill: url(#SVGID_1817); fill-rule: nonzero; opacity: 1;"  transform=" translate(-52.33739418807272, -36.818151347663715)" d="M 39 37.9 c 0.08 -0.15 0.13 -0.36 0.27 -0.46 s 0.55 -0.3 0.8 -0.48 c 2.58 -1.91 5.62 -2.45 8.67 -2.84 a 32.29 32.29 0 0 1 4.4 0 c 1.36 0 2.72 0 4.08 0.08 a 9.76 9.76 0 0 1 4.14 1.37 c 1 0.59 2.05 1.21 3 1.89 c 0.67 0.46 1.38 1 1.31 2 c -0.52 0.31 -0.85 0 -1.21 -0.2 c -2 -0.83 -4 -1.69 -6 -2.47 a 7.11 7.11 0 0 0 -1.85 -0.33 c -1.88 -0.2 -3.75 -0.38 -5.63 -0.55 a 8.06 8.06 0 0 0 -1.77 0 c -1.56 0.23 -3.1 0.57 -4.66 0.79 A 17.85 17.85 0 0 0 39.41 38 a 0.76 0.76 0 0 1 -0.3 0 S 39.06 38 39 37.9 Z" stroke-linecap="round" />
</g>
</g>
</g>
</svg>